<?xml version="1.0" encoding="utf-8"?>
<!-- Generator: Adobe Illustrator 19.0.0, SVG Export Plug-In . SVG Version: 6.00 Build 0)  -->
<svg version="1.1" id="Layer_1" xmlns="http://www.w3.org/2000/svg" xmlns:xlink="http://www.w3.org/1999/xlink" x="0px" y="0px"
	 viewBox="0 0 960 231.4" style="enable-background:new 0 0 960 231.4;" xml:space="preserve">
<style type="text/css">
	.st0{fill:#323232;}
</style>
<g id="XMLID_5_">
	<g id="XMLID_33_">
		<path id="XMLID_45_" class="st0" d="M64.7,108.4c13.8,0,26.8-4.9,36.6-14.8c9.8-9.9,15.2-22.5,15.2-36.3
			c0-28.6-23.3-51.8-51.9-51.8c-13.9,0-26.9,5.4-36.8,15.2C18.1,30.5,12.7,43.1,12.7,57c0,28.5,23.3,51.4,51.8,51.4H64.7z"/>
		<path id="XMLID_38_" class="st0" d="M123,145.4c-22.1,0-40.2,17.7-40.3,39.8c-0.1,22.2,17.8,40.2,39.9,40.2h0.2
			c22.2,0,40.3-17.8,40.4-39.9C163.2,163.3,145.3,145.5,123,145.4z"/>
		<path id="XMLID_37_" class="st0" d="M204.5,52.2c-15.7,0-28.4,12.8-28.5,28.5c0,7.7,3,14.5,8.4,19.9c5.4,5.4,12.5,7.8,20,7.8h0.3
			c15.7,0,28.5-12.5,28.4-28.2C233.1,64.5,220.3,52.2,204.5,52.2z"/>
		<path id="XMLID_36_" class="st0" d="M204.5,144.4h-0.2c-9.3,0-16.8,7.8-16.7,17.1c0.1,9.3,7.6,16.9,16.9,16.9h0
			c9.3,0,16.9-6.9,17-16.2c0-4.5-1.7-9.3-4.9-12.5C213.4,146.4,209.1,144.4,204.5,144.4z"/>
		<path id="XMLID_35_" class="st0" d="M157.9,17.2c-9.3,0-16.9,7.3-16.9,16.6c0,9.3,7.5,16.6,16.9,16.6h0c9.3,0,16.9-7.2,16.9-16.6
			C174.8,24.5,167.3,17.2,157.9,17.2z"/>
		<path id="XMLID_34_" class="st0" d="M53,122.3c-9.3,0-16.8,8.1-16.9,17.4c0,9.3,7.5,17.7,16.8,17.7H53c9.3,0,16.9-8.1,16.9-17.4
			C69.9,130.6,62.4,122.4,53,122.3z"/>
	</g>
	<g id="XMLID_6_">
		<path id="XMLID_30_" class="st0" d="M333.3,20.5c15.5,0,28.8,5.5,39.7,16.5c11,11,16.5,24.2,16.5,39.7v43.7
			c0,14.4-4.9,27-14.6,37.7c-9.7,10.7-21.7,16.8-35.9,18.2c-0.8,0.2-1.5,0.3-2.2,0.3h-37.6v24.2c0,2.6-1,4.9-2.9,6.7
			c-1.8,1.9-4.1,2.9-6.8,2.9c-2.6,0-4.9-1-6.7-2.9c-1.9-1.8-2.9-4-2.9-6.7V30c0-2.6,1-4.9,2.9-6.8c1.8-1.8,4-2.7,6.7-2.7H333.3z
			 M370.3,76.7c0-10.3-3.6-19-10.9-26.3c-7.3-7.3-16-10.9-26.1-10.9h-34v117.8h34c10.2,0,18.9-3.6,26.1-10.7
			c7.3-7.3,10.9-16,10.9-26.3V76.7z"/>
		<path id="XMLID_22_" class="st0" d="M445,87.6c13.1,0,23.1,3.4,30.1,10.1c7,6.8,10.5,16.6,10.5,29.3v73.9c0,2.6-1,4.9-2.9,6.7
			c-1.8,1.9-4.1,2.9-6.8,2.9h-32.2c-11.5,0-21.4-3.8-29.7-11.4c-8.2-7.6-12.2-16.8-12.2-27.5v-4.9c0-10.8,4.1-20,12.2-27.6
			c8.3-7.5,18.1-11.3,29.7-11.3c8.3,0,15.8,2.1,22.7,6.3v-6.9c0-7.4-1.6-12.7-4.8-15.6c-3.2-3.1-8.7-4.6-16.6-4.6
			c-5.6,0-11,1.5-16.2,4.4c-1.6,0.8-3.1,1.8-4.5,2.9c-0.5,0.4-0.9,0.7-1.2,1l-0.3,0.3l-0.1,0.1c-1.8,1.9-4,2.9-6.7,2.9
			c-2.6,0-4.9-0.9-6.8-2.7c-1.9-1.9-2.9-4.2-2.9-6.8c0-2.6,0.9-4.9,2.7-6.8l0.1-0.1l0.1-0.1c0.2-0.2,0.4-0.4,0.5-0.5
			c0.6-0.5,1.3-1.1,2-1.6c2.2-1.8,4.6-3.4,7.2-4.9C427.3,89.8,435.9,87.6,445,87.6z M420.9,171.4c0,5.4,2.2,10.1,6.7,14
			c4.4,3.8,9.8,5.7,16.1,5.7h22.7v-24.6c0-5.4-2.2-10.1-6.7-14c-4.4-3.9-9.8-5.9-16.1-5.9s-11.6,2-16.1,5.9c-4.4,3.9-6.7,8.6-6.7,14
			V171.4z"/>
		<path id="XMLID_20_" class="st0" d="M525.2,200.5c0,2.6-1,4.9-2.9,6.8c-1.8,1.9-4.1,2.9-6.8,2.9c-2.6,0-4.9-1-6.7-2.9
			c-1.9-1.9-2.9-4.2-2.9-6.8v-68.3c0-12.2,4.3-22.5,12.9-31.2c8.6-8.6,19-12.9,31.2-12.9c8.3,0,16.1,2.2,23.1,6.5
			c7,4.4,12.4,10.3,16.2,17.7c1.2,2.4,1.4,4.8,0.5,7.2c-0.8,2.5-2.4,4.4-4.8,5.6c-2.4,1.3-4.8,1.5-7.3,0.5c-2.5-0.8-4.4-2.4-5.6-4.8
			c-2.1-4.2-5.1-7.5-9.1-9.9c-4-2.4-8.3-3.7-13.1-3.7c-6.9,0-12.8,2.4-17.7,7.2c-4.8,4.9-7.2,10.8-7.2,17.7V200.5z"/>
		<path id="XMLID_17_" class="st0" d="M632.1,109.1v74.7c0,0.7,0.1,1.4,0.3,2c0.3,0.9,0.7,1.7,1.2,2.4c1.5,1.9,4.1,2.9,7.8,2.9
			c2.6,0,4.9,1,6.8,2.9c1.8,1.8,2.7,4.1,2.7,6.8c0,2.6-0.9,4.9-2.7,6.7c-1.9,1.9-4.2,2.9-6.8,2.9c-9.3,0-16.6-3.1-21.8-9.3
			c-4.4-4.9-6.6-10.6-6.7-17.1v-74.8h-6.8c-2.6,0-4.9-1-6.7-2.9c-1.9-1.9-2.9-4.2-2.9-6.8c0-2.6,1-4.9,2.9-6.8
			c1.8-1.8,4-2.7,6.7-2.7h6.8V56.3c0-2.6,1-4.9,2.9-6.8c1.8-1.8,4.1-2.7,6.8-2.7c2.6,0,4.9,0.9,6.7,2.7c1.9,1.9,2.9,4.2,2.9,6.8
			v33.6h6.8c2.6,0,4.9,0.9,6.7,2.7c1.9,1.9,2.9,4.2,2.9,6.8c0,2.6-1,4.9-2.9,6.8c-1.8,1.9-4,2.9-6.7,2.9H632.1z"/>
		<path id="XMLID_14_" class="st0" d="M688.9,54.6c2.2,2.2,3.3,4.9,3.3,8c0,3.1-1.1,5.7-3.3,7.9c-2.2,2.2-4.9,3.3-8,3.3
			c-3.2,0-5.8-1.1-7.9-3.3c-2.2-2.2-3.3-4.8-3.3-7.9c0-3.2,1.1-5.9,3.3-8c2.1-2.2,4.7-3.3,7.9-3.3C684,51.4,686.7,52.5,688.9,54.6z
			 M690.5,200.8c0,2.6-1,4.9-2.9,6.7c-1.8,1.9-4.1,2.9-6.8,2.9c-2.6,0-4.9-1-6.7-2.9c-1.9-1.8-2.9-4-2.9-6.7V99.3c0-2.7,1-5,2.9-6.8
			c1.8-1.9,4-2.9,6.7-2.9c2.7,0,5,1,6.8,2.9c1.9,1.8,2.9,4.1,2.9,6.8V200.8z"/>
		<path id="XMLID_12_" class="st0" d="M758,192.5c4.3,0,8.8-2.1,13.5-6.4c4.7-4.2,7.4-9.4,8.2-15.8c0.3-1.7,1.4-3.4,3.5-5.2
			c2-1.6,4.3-2.3,6.9-2c2.6,0.3,4.8,1.5,6.5,3.5c1.6,2,2.3,3.9,2,5.6c-1.2,11.2-5.9,20.6-14.3,28.2c-8.3,7.3-17.1,11.1-26.4,11.2
			l-2.4,0.1h-0.7c-12.1,0-22.4-4.3-31-12.9c-8.6-8.6-12.9-19-12.9-31.2v-35.5c0-12.2,4.3-22.5,12.9-31.2c8.6-8.6,19-12.9,31-12.9
			h0.5c11,0.1,20.6,3.9,29,11.3c8.3,7.5,13.1,16.9,14.3,28.2c0.3,1.7-0.4,3.6-2,5.6c-1.7,2.1-3.9,3.3-6.5,3.5
			c-2.6,0.3-4.9-0.4-6.9-2c-2.1-1.7-3.3-3.4-3.5-5.2c-0.7-6.3-3.4-11.6-8.2-15.8c-4.7-4.3-10.3-6.4-16.6-6.4V107
			c-6.8,0-12.7,2.4-17.6,7.3c-4.8,4.9-7.2,10.8-7.2,17.7v35.5c0,6.9,2.4,12.8,7.2,17.7c4.9,4.8,10.8,7.2,17.6,7.2h0.1H758z"/>
		<path id="XMLID_10_" class="st0" d="M838.7,200.8c0,2.6-1,4.9-2.9,6.7c-1.8,1.9-4.1,2.9-6.8,2.9c-2.6,0-4.9-1-6.7-2.9
			c-1.9-1.8-2.9-4-2.9-6.7V30.3c0-2.7,1-5,2.9-6.8c1.8-1.9,4-2.9,6.7-2.9c2.7,0,5,1,6.8,2.9c1.9,1.8,2.9,4.1,2.9,6.8V200.8z"/>
		<path id="XMLID_7_" class="st0" d="M903.1,211.5c-12.1,0-22.4-4.3-31-12.9c-8.6-8.6-12.9-19-12.9-31.2v-35.5
			c0-12.2,4.3-22.5,12.9-31.2c8.6-8.6,19-12.9,31.2-12.9c12.2,0,22.5,4.3,31.2,12.9c8.6,8.6,12.9,19,12.9,31.2V142
			c0,7.5-3.9,11.3-11.7,11.3h-57.3v14.2c0,6.9,2.4,12.8,7.2,17.7c4.9,4.6,10.8,6.9,17.7,6.9h1.2c5.8,0,10.9-2,15.2-6
			c4.7-4.2,7.4-9.4,8.2-15.8c0.3-1.7,1.4-3.4,3.5-5.2c2-1.6,4.3-2.3,6.9-2c2.6,0.3,4.8,1.5,6.5,3.5c1.6,2,2.3,3.9,2,5.6
			c-1.2,11.2-5.9,20.6-14.3,28.2c-8.4,7.5-18.3,11.3-29.5,11.3V211.5z M928.1,134.1v-2.2c0-6.9-2.4-12.8-7.3-17.7
			c-4.8-4.9-10.7-7.3-17.6-7.3c-6.9,0-12.8,2.4-17.7,7.3c-4.8,4.9-7.2,10.8-7.2,17.7v2.2H928.1z"/>
	</g>
</g>
</svg>
