<?xml version="1.0" encoding="utf-8"?>
<!-- Generator: Adobe Illustrator 19.0.0, SVG Export Plug-In . SVG Version: 6.00 Build 0)  -->
<svg version="1.1" id="Layer_1" xmlns="http://www.w3.org/2000/svg" xmlns:xlink="http://www.w3.org/1999/xlink" x="0px" y="0px"
	 viewBox="0 0 243.1 231.4" style="enable-background:new 0 0 243.1 231.4;" xml:space="preserve">
<style type="text/css">
	.st0{fill:#323232;}
</style>
<g id="XMLID_5_">
	<g id="XMLID_33_">
		<path id="XMLID_45_" class="st0" d="M63.4,108.4c13.8,0,26.8-4.9,36.6-14.8c9.8-9.9,15.2-22.5,15.2-36.3
			c0-28.6-23.3-51.8-51.9-51.8c-13.9,0-26.9,5.4-36.8,15.2C16.7,30.5,11.3,43.1,11.3,57c0,28.5,23.3,51.4,51.8,51.4H63.4z"/>
		<path id="XMLID_38_" class="st0" d="M121.6,145.4c-22.1,0-40.2,17.7-40.3,39.8c-0.1,22.2,17.8,40.2,39.9,40.2h0.2
			c22.2,0,40.3-17.8,40.4-39.9C161.9,163.3,143.9,145.5,121.6,145.4z"/>
		<path id="XMLID_37_" class="st0" d="M203.1,52.2c-15.7,0-28.4,12.8-28.5,28.5c0,7.7,3,14.5,8.4,19.9c5.4,5.4,12.5,7.8,20,7.8h0.3
			c15.7,0,28.5-12.5,28.4-28.2C231.7,64.5,218.9,52.2,203.1,52.2z"/>
		<path id="XMLID_36_" class="st0" d="M203.1,144.4H203c-9.3,0-16.8,7.8-16.7,17.1c0.1,9.3,7.6,16.9,16.9,16.9h0
			c9.3,0,16.9-6.9,17-16.2c0-4.5-1.7-9.3-4.9-12.5C212,146.4,207.7,144.4,203.1,144.4z"/>
		<path id="XMLID_35_" class="st0" d="M156.5,17.2c-9.3,0-16.9,7.3-16.9,16.6c0,9.3,7.5,16.6,16.9,16.6h0c9.3,0,16.9-7.2,16.9-16.6
			C173.4,24.5,165.9,17.2,156.5,17.2z"/>
		<path id="XMLID_34_" class="st0" d="M51.6,122.3c-9.3,0-16.8,8.1-16.9,17.4c0,9.3,7.5,17.7,16.8,17.7h0.1
			c9.3,0,16.9-8.1,16.9-17.4C68.5,130.6,61,122.4,51.6,122.3z"/>
	</g>
</g>
</svg>
