<?xml version="1.0" encoding="utf-8"?>
<!-- Generator: Adobe Illustrator 19.0.0, SVG Export Plug-In . SVG Version: 6.00 Build 0)  -->
<svg version="1.1" id="Layer_1" xmlns="http://www.w3.org/2000/svg" xmlns:xlink="http://www.w3.org/1999/xlink" x="0px" y="0px"
	 viewBox="-464 -26 617 616" style="enable-background:new -464 -26 617 616;" xml:space="preserve">
<style type="text/css">
	.st0{fill:#2FAC66;}
</style>
<g id="XMLID_55_">
	<path id="XMLID_1_" class="st0" d="M128.6,181.7c-7.8-6.8-15.8-13-23.6-19.6c-9.8-8.2-17-18.4-19.4-31.2c-1.8-10-3.4-20.2-4.2-30.4
		C78.6,70.4,68,58.4,38.2,52.8C31,51.4,24,50,16.8,49.2C-3.6,46.8-19.2,37-31,20.4C-37.6,11-45,2.2-52.6-6.2
		c-10-10.8-22.4-14.6-36.8-10.4c-9.8,2.8-19.6,6-29,9.8c-19.4,7.8-38.4,10.4-58,0.6c-8.2-4-17-7.4-25.6-10.6
		c-22.2-8.2-35.8-4.8-51.8,12.6c-7,7.8-13.6,16-20.2,24.2c-10,12.4-22.6,20-38.6,22c-13.8,1.8-27.6,4-41.4,6.8
		c-14,2.8-23.2,11.6-27.2,25c-2.6,8.8-5,18-5.8,27c-2,26.8-14.6,47-36.6,62c-8.4,5.8-16,12.8-23,20.2c-8.6,9-11.4,20.4-8,32.6
		c3,10.4,6,20.6,10.2,30.6c8,19.4,10.2,38.4,0.2,57.8c-4,7.6-7,15.4-10,23.4c-8.8,23.2-5.2,37.8,13.8,53.8
		c8.6,7.2,17.6,14,26.2,21.2c9.8,8,16.4,18.2,18.4,30.8c2.2,13.6,4.2,27.2,6.4,40.6c2.8,20.8,15.4,31.6,35.2,35.8
		c6.4,1.4,12.8,2.8,19.2,3.4c26.6,2,46.6,14.4,61,36.8c5,7.8,11.6,15,18.2,21.8c9.4,9.6,21.2,13,34.4,9.2c10-2.8,20.2-6,29.8-10
		c19.4-8,38.4-10.4,57.8-0.4c8.4,4.4,17.4,7.6,26.2,11.2c19.2,7.4,35.8,3.6,49.4-12c7.8-8.8,15.2-18,22.6-27
		C-27,532-16.2,525-3,522.8c9.8-1.6,19.8-3,29.6-4c29.8-3,41.6-13.8,47-43.2c1.6-8.4,3-16.8,4.2-25c2.6-17.2,10.8-30.8,24.8-41.2
		c10.4-7.8,20.6-15.8,30.2-24.6c10.8-9.8,14.6-22.4,10.4-36.8c-2.8-9.6-5.8-19.2-9.6-28.4c-8.2-19.8-10.6-39.4-0.6-59.4
		c3.6-7.4,6.6-15.2,9.6-22.8C151.9,213.1,148.3,199.1,128.6,181.7z"/>
</g>
</svg>
